<svg width="37" height="40" viewBox="0 0 37 40" fill="none" xmlns="http://www.w3.org/2000/svg">
<path d="M18.3333 24.1667C18.3333 19.1117 21.8017 14.8767 26.485 13.6817C25.6917 10.72 24.47 8.07 21.8967 6.575C20.8233 5.95167 20.16 4.79167 20.1617 3.54167V3.53667C20.1617 1.58333 18.5967 0 16.6667 0C14.7367 0 13.1717 1.58333 13.1717 3.53667V3.54167C13.1733 4.79333 12.5117 5.95167 11.4367 6.575C3.65833 11.095 8.12833 26.1 0 28.7517V31.6667H21.36C19.49 29.72 18.3333 27.08 18.3333 24.1667V24.1667ZM16.6667 5C15.7467 5 15 4.25333 15 3.33333C15 2.415 15.7467 1.66667 16.6667 1.66667C17.5867 1.66667 18.3333 2.415 18.3333 3.33333C18.3333 4.25333 17.5867 5 16.6667 5ZM11.6667 35H21.6667C21.6667 37.6633 19.3467 40 16.715 40C14.0833 40 11.6667 37.6633 11.6667 35ZM29.1667 16.6667C25.0233 16.6667 21.6667 20.025 21.6667 24.1667C21.6667 28.3083 25.0233 31.6667 29.1667 31.6667C33.3067 31.6667 36.6667 28.3083 36.6667 24.1667C36.6667 20.025 33.3067 16.6667 29.1667 16.6667ZM28.385 27.4733L25.5717 24.745L26.73 23.5833L28.3833 25.15L31.9083 21.535L33.07 22.695L28.385 27.4733V27.4733Z" fill="url(#paint0_linear)"/>
<defs>
<linearGradient id="paint0_linear" x1="18.3333" y1="0" x2="18.3333" y2="40" gradientUnits="userSpaceOnUse">
<stop stop-color="white"/>
<stop offset="0.810417" stop-color="white"/>
<stop offset="0.930208" stop-color="#FF2103"/>
<stop offset="1" stop-color="#FF1F00"/>
</linearGradient>
</defs>
</svg>
