<svg width="85" height="85" viewBox="0 0 85 85" fill="none" xmlns="http://www.w3.org/2000/svg">
<g clip-path="url(#clip0)">
<path d="M85 73.2487C84.9929 78.756 80.8563 81.4583 77.0667 81.4583C73.8685 81.4583 70.8333 79.5317 70.8333 75.735C70.8333 71.825 75.0869 68.2338 79.7406 68.2338C80.3108 68.2338 80.8846 68.2869 81.4583 68.4002V53.1285L60.2083 57.4812V76.7833C60.2013 82.2942 56.0292 85 52.2112 85C49.0025 85 46.0417 83.0804 46.0417 79.2979C46.0417 75.3808 50.2952 71.7719 54.9596 71.7719C55.5262 71.7719 56.1 71.825 56.6738 71.9383V48.8467L85 42.5V73.2487ZM38.9583 49.5833C33.0898 49.5833 28.3333 44.8269 28.3333 38.9583C28.3333 33.0898 33.0898 28.3333 38.9583 28.3333C44.8269 28.3333 49.5833 33.0898 49.5833 38.9583C49.5833 44.8269 44.8269 49.5833 38.9583 49.5833ZM38.9583 46.0417C42.8648 46.0417 46.0417 42.8648 46.0417 38.9583C46.0417 35.0519 42.8648 31.875 38.9583 31.875C35.0519 31.875 31.875 35.0519 31.875 38.9583C31.875 42.8648 35.0519 46.0417 38.9583 46.0417ZM32.5196 55.4129C27.9402 53.6138 24.3065 49.98 22.5073 45.4006L18.8771 45.854C21.0021 52.0377 25.886 56.9217 32.0698 59.0431L32.5196 55.4129ZM15.2752 46.3038L11.7335 46.7465C14.4146 56.1248 21.7919 63.5021 31.1702 66.1831L31.6129 62.6415C23.8425 60.2225 17.6942 54.0777 15.2752 46.3038ZM45.3971 22.5038C49.9765 24.3029 53.6102 27.9367 55.4094 32.5196L59.0396 32.0663C56.9146 25.8825 52.0306 20.9985 45.8469 18.8735L45.3971 22.5038ZM39.1248 77.9096C39.4152 75.31 40.4635 72.806 42.2344 70.6669C41.1577 70.7731 40.0633 70.8333 38.9583 70.8333C21.381 70.8333 7.08333 56.5321 7.08333 38.9583C7.08333 21.3846 21.381 7.08333 38.9583 7.08333C56.355 7.08333 70.5146 21.0977 70.805 38.4235L77.8104 36.8546C76.709 16.32 59.7621 0 38.9583 0C17.4427 0 0 17.4427 0 38.9583C0 60.474 17.4427 77.9167 38.9583 77.9167L39.1248 77.9096ZM46.7429 11.7335L46.3002 15.2752C54.0742 17.6906 60.2225 23.839 62.6379 31.6129L66.1796 31.1702C63.5056 21.7919 56.1283 14.411 46.7429 11.7335Z" fill="url(#paint0_linear)" fill-opacity="0.96"/>
<g filter="url(#filter0_b)">
<path d="M44.5508 39.1521L44.6454 39.2607C44.8976 39.5502 44.9805 39.8281 44.8941 40.0944C44.7999 40.3515 44.6261 40.5905 44.3727 40.8111C44.2551 40.9136 44.1607 40.9879 44.0894 41.034C44.0103 41.0711 43.9206 41.0777 43.8201 41.0538C43.7197 41.0298 43.5878 40.9697 43.4243 40.8734C43.2699 40.7692 43.0546 40.6225 42.7785 40.4334C42.4865 40.2261 42.2295 40.0681 42.0074 39.9592C41.7852 39.8504 41.5765 39.7934 41.3812 39.7885C41.1871 39.7666 40.9889 39.804 40.7866 39.9006C40.5934 39.9894 40.3701 40.1441 40.1167 40.3648C39.6372 40.7825 39.2819 41.1238 39.0511 41.3885C38.8202 41.6533 38.6802 41.8946 38.6312 42.1123C38.5743 42.3211 38.5891 42.539 38.6755 42.7661C38.754 42.9841 38.8668 43.2598 39.014 43.5931C39.1162 43.8383 39.2364 44.0678 39.3748 44.2814C39.5143 44.4782 39.5924 44.6409 39.6091 44.7696C39.6269 44.8814 39.5317 45.028 39.3236 45.2092C39.1155 45.3905 38.8732 45.4504 38.5968 45.3888C38.3294 45.3194 38.1051 45.1806 37.9238 44.9724C37.7346 44.7553 37.6257 44.4841 37.5971 44.1589C37.5828 43.9963 37.5589 43.8501 37.5253 43.7202C37.4929 43.5734 37.4593 43.4435 37.4246 43.3305C37.3898 43.2176 37.263 42.8984 37.044 42.373C36.8172 41.8385 36.5118 41.086 36.1279 40.1154C35.7349 39.1528 35.4228 38.3743 35.1916 37.78C34.9616 37.1688 34.809 36.7287 34.734 36.4599C34.5906 35.9482 34.5389 35.5874 34.5789 35.3775C34.6189 35.1676 34.7339 34.9799 34.9239 34.8144C35.1139 34.6489 35.345 34.567 35.617 34.5687C35.8981 34.5626 36.2986 34.6752 36.8185 34.9067C36.8185 34.9067 38.9144 36.0888 43.1063 38.4529C43.3273 38.5787 43.5917 38.6905 43.8997 38.7883C44.2077 38.8861 44.4247 39.0073 44.5508 39.1521ZM39.2734 39.6433C39.8706 39.123 40.1219 38.8087 40.0273 38.7001L39.9919 38.6594C39.9761 38.6413 39.9355 38.6129 39.8701 38.5744C39.8138 38.528 39.7332 38.4629 39.6284 38.3791L39.2378 38.1226C39.23 38.1135 39.1933 38.0898 39.1279 38.0512C39.1031 38.041 38.8439 37.853 38.3503 37.4873C37.8634 37.1476 37.369 36.8541 36.8672 36.6069C36.3733 36.3687 36.1128 36.2615 36.0856 36.2851C36.0585 36.3087 36.1128 36.5081 36.2485 36.8832C37.0158 39.0794 37.5295 40.3268 37.7896 40.6254L37.825 40.6662C37.9039 40.7566 38.1423 40.6285 38.5405 40.2817L39.2734 39.6433Z" fill="url(#paint1_linear)"/>
</g>
</g>
<defs>
<filter id="filter0_b" x="7" y="5.99999" width="41.9272" height="43.4122" filterUnits="userSpaceOnUse" color-interpolation-filters="sRGB">
<feFlood flood-opacity="0" result="BackgroundImageFix"/>
<feGaussianBlur in="BackgroundImage" stdDeviation="2"/>
<feComposite in2="SourceAlpha" operator="in" result="effect1_backgroundBlur"/>
<feBlend mode="normal" in="SourceGraphic" in2="effect1_backgroundBlur" result="shape"/>
</filter>
<linearGradient id="paint0_linear" x1="42.5" y1="0" x2="42.5" y2="85" gradientUnits="userSpaceOnUse">
<stop stop-color="white"/>
</linearGradient>
<linearGradient id="paint1_linear" x1="31.958" y1="29.3188" x2="41.042" y2="39.7473" gradientUnits="userSpaceOnUse">
<stop stop-color="#3763FF"/>
</linearGradient>
<clipPath id="clip0">
<rect width="85" height="85" fill="white"/>
</clipPath>
</defs>
</svg>
