<svg width="60" height="60" viewBox="0 0 60 60" fill="none" xmlns="http://www.w3.org/2000/svg">
<g clip-path="url(#clip0)">
<path d="M60 51.705C59.995 55.5925 57.075 57.5 54.4 57.5C52.1425 57.5 50 56.14 50 53.46C50 50.7 53.0025 48.165 56.2875 48.165C56.69 48.165 57.095 48.2025 57.5 48.2825V37.5025L42.5 40.575V54.2C42.495 58.09 39.55 60 36.855 60C34.59 60 32.5 58.645 32.5 55.975C32.5 53.21 35.5025 50.6625 38.795 50.6625C39.195 50.6625 39.6 50.7 40.005 50.78V34.48L60 30V51.705ZM27.5 35C23.3575 35 20 31.6425 20 27.5C20 23.3575 23.3575 20 27.5 20C31.6425 20 35 23.3575 35 27.5C35 31.6425 31.6425 35 27.5 35ZM27.5 32.5C30.2575 32.5 32.5 30.2575 32.5 27.5C32.5 24.7425 30.2575 22.5 27.5 22.5C24.7425 22.5 22.5 24.7425 22.5 27.5C22.5 30.2575 24.7425 32.5 27.5 32.5ZM22.955 39.115C19.7225 37.845 17.1575 35.28 15.8875 32.0475L13.325 32.3675C14.825 36.7325 18.2725 40.18 22.6375 41.6775L22.955 39.115ZM10.7825 32.685L8.2825 32.9975C10.175 39.6175 15.3825 44.825 22.0025 46.7175L22.315 44.2175C16.83 42.51 12.49 38.1725 10.7825 32.685ZM32.045 15.885C35.2775 17.155 37.8425 19.72 39.1125 22.955L41.675 22.635C40.175 18.27 36.7275 14.8225 32.3625 13.3225L32.045 15.885ZM27.6175 54.995C27.8225 53.16 28.5625 51.3925 29.8125 49.8825C29.0525 49.9575 28.28 50 27.5 50C15.0925 50 5 39.905 5 27.5C5 15.095 15.0925 5 27.5 5C39.78 5 49.775 14.8925 49.98 27.1225L54.925 26.015C54.1475 11.52 42.185 0 27.5 0C12.3125 0 0 12.3125 0 27.5C0 42.6875 12.3125 55 27.5 55L27.6175 54.995ZM32.995 8.2825L32.6825 10.7825C38.17 12.4875 42.51 16.8275 44.215 22.315L46.715 22.0025C44.8275 15.3825 39.62 10.1725 32.995 8.2825Z" fill="url(#paint0_linear)" fill-opacity="0.96"/>
<g filter="url(#filter0_b)">
<path d="M31.0163 27.4667L31.0793 27.5391C31.2475 27.7321 31.3028 27.9174 31.2452 28.0949C31.1823 28.2663 31.0665 28.4256 30.8976 28.5727C30.8191 28.641 30.7562 28.6906 30.7087 28.7213C30.656 28.746 30.5961 28.7504 30.5292 28.7345C30.4622 28.7185 30.3743 28.6784 30.2653 28.6142C30.1623 28.5447 30.0188 28.447 29.8347 28.3209C29.6401 28.1827 29.4688 28.0774 29.3207 28.0048C29.1726 27.9322 29.0334 27.8943 28.9032 27.891C28.7738 27.8764 28.6417 27.9013 28.5068 27.9657C28.378 28.0249 28.2291 28.128 28.0602 28.2752C27.7405 28.5536 27.5037 28.7811 27.3498 28.9577C27.1959 29.1342 27.1026 29.295 27.0699 29.4402C27.0319 29.5793 27.0418 29.7246 27.0994 29.876C27.1517 30.0214 27.227 30.2052 27.3251 30.4274C27.3932 30.5909 27.4734 30.7438 27.5656 30.8862C27.6586 31.0174 27.7107 31.1259 27.7218 31.2117C27.7337 31.2862 27.6702 31.3839 27.5315 31.5048C27.3928 31.6256 27.2312 31.6656 27.047 31.6245C26.8687 31.5782 26.7191 31.4857 26.5983 31.3469C26.4722 31.2022 26.3996 31.0214 26.3805 30.8046C26.3709 30.6962 26.355 30.5987 26.3326 30.5121C26.311 30.4142 26.2886 30.3276 26.2654 30.2523C26.2423 30.177 26.1577 29.9642 26.0117 29.6139C25.8605 29.2576 25.6569 28.756 25.401 28.1089C25.139 27.4671 24.931 26.9481 24.7768 26.5519C24.6235 26.1445 24.5218 25.8511 24.4717 25.6719C24.3762 25.3307 24.3417 25.0902 24.3684 24.9503C24.395 24.8104 24.4717 24.6853 24.5984 24.5749C24.725 24.4646 24.8791 24.41 25.0604 24.4111C25.2478 24.407 25.5148 24.4821 25.8614 24.6364C25.8614 24.6364 27.2587 25.4245 30.0533 27.0006C30.2006 27.0845 30.3769 27.159 30.5822 27.2242C30.7875 27.2893 30.9322 27.3702 31.0163 27.4667ZM27.498 27.7941C27.8961 27.4473 28.0637 27.2377 28.0006 27.1653L27.977 27.1382C27.9665 27.1261 27.9394 27.1073 27.8958 27.0816C27.8583 27.0506 27.8046 27.0072 27.7347 26.9514L27.4743 26.7804C27.4691 26.7743 27.4446 26.7585 27.401 26.7328C27.3845 26.726 27.2117 26.6007 26.8826 26.3568C26.558 26.1303 26.2284 25.9347 25.8939 25.7699C25.5646 25.6111 25.3909 25.5396 25.3728 25.5554C25.3547 25.5711 25.3909 25.704 25.4814 25.9541C25.9929 27.4182 26.3354 28.2499 26.5088 28.4489L26.5324 28.4761C26.585 28.5364 26.744 28.451 27.0094 28.2198L27.498 27.7941Z" fill="url(#paint1_linear)"/>
</g>
</g>
<defs>
<filter id="filter0_b" x="7" y="5.99999" width="28.2672" height="29.6401" filterUnits="userSpaceOnUse" color-interpolation-filters="sRGB">
<feFlood flood-opacity="0" result="BackgroundImageFix"/>
<feGaussianBlur in="BackgroundImage" stdDeviation="2"/>
<feComposite in2="SourceAlpha" operator="in" result="effect1_backgroundBlur"/>
<feBlend mode="normal" in="SourceGraphic" in2="effect1_backgroundBlur" result="shape"/>
</filter>
<linearGradient id="paint0_linear" x1="30" y1="0" x2="30" y2="60" gradientUnits="userSpaceOnUse">
<stop stop-color="#4200FF"/>
<stop offset="0.628125" stop-color="#EC12BC"/>
<stop offset="0.9999" stop-color="#9805F1" stop-opacity="0.49538"/>
<stop offset="1" stop-color="#038DF0"/>
</linearGradient>
<linearGradient id="paint1_linear" x1="23.5767" y1="20.5208" x2="32.1555" y2="30.3694" gradientUnits="userSpaceOnUse">
<stop stop-color="#FFF500"/>
</linearGradient>
<clipPath id="clip0">
<rect width="60" height="60" fill="white"/>
</clipPath>
</defs>
</svg>
